<svg xmlns="http://www.w3.org/2000/svg" viewBox="0 0 164 191.68"><defs><style>.cls-1,.cls-5{fill:#fff;}.cls-2{fill:#0071bc;}.cls-3{stroke:#000;stroke-width:0.75px;}.cls-3,.cls-4,.cls-5,.cls-6{stroke-miterlimit:10;}.cls-4,.cls-6{fill:none;}.cls-4,.cls-5,.cls-6{stroke:#0071bc;}.cls-4{stroke-width:4px;}.cls-5,.cls-6{stroke-width:5px;}</style></defs><title>Asset 1</title><g id="Layer_2" data-name="Layer 2"><g id="Layer_1-2" data-name="Layer 1"><circle class="cls-1" cx="84" cy="47" r="26.5"/><path class="cls-2" d="M84,23A24,24,0,1,1,60,47,24,24,0,0,1,84,23m0-5a29,29,0,1,0,29,29A29,29,0,0,0,84,18Z"/><path class="cls-3" d="M7.67,173h1.7l5.23,14.2H12.45L8.51,175.73,4.57,187.19H2.43Zm-2.83,9.19h7.47v1.89H4.84Z"/><path class="cls-3" d="M17.87,186.88a3.1,3.1,0,0,1-1.2-1.41,5.38,5.38,0,0,1-.41-2.23V181a5.61,5.61,0,0,1,.4-2.24,3,3,0,0,1,1.17-1.41,3.38,3.38,0,0,1,1.84-.48,3.07,3.07,0,0,1,1.65.47,3.44,3.44,0,0,1,1.21,1.32l-.21,2.07a2.45,2.45,0,0,0-.23-1.1,1.59,1.59,0,0,0-.68-.7,2.27,2.27,0,0,0-1.08-.24,1.93,1.93,0,0,0-1.53.62,2.54,2.54,0,0,0-.54,1.73v2.21a2.44,2.44,0,0,0,.54,1.7,2,2,0,0,0,1.53.6,2.16,2.16,0,0,0,1.08-.25,1.69,1.69,0,0,0,.68-.72,2.44,2.44,0,0,0,.23-1.12l.14,2.14a2.88,2.88,0,0,1-1,1.26,2.76,2.76,0,0,1-1.69.51A3.48,3.48,0,0,1,17.87,186.88ZM22.31,173h2v14.2h-2Z"/><path class="cls-3" d="M28.65,186.88a3.1,3.1,0,0,1-1.2-1.41,5.38,5.38,0,0,1-.41-2.23V181a5.61,5.61,0,0,1,.4-2.24,3,3,0,0,1,1.17-1.41,3.38,3.38,0,0,1,1.84-.48,3.07,3.07,0,0,1,1.65.47,3.44,3.44,0,0,1,1.21,1.32l-.21,2.07a2.45,2.45,0,0,0-.23-1.1,1.59,1.59,0,0,0-.68-.7,2.27,2.27,0,0,0-1.08-.24,1.93,1.93,0,0,0-1.53.62A2.54,2.54,0,0,0,29,181v2.21a2.44,2.44,0,0,0,.54,1.7,2,2,0,0,0,1.53.6,2.16,2.16,0,0,0,1.08-.25,1.69,1.69,0,0,0,.68-.72,2.44,2.44,0,0,0,.23-1.12l.14,2.14a2.88,2.88,0,0,1-1,1.26,2.76,2.76,0,0,1-1.69.51A3.48,3.48,0,0,1,28.65,186.88ZM33.1,173h2v14.2h-2Z"/><path class="cls-3" d="M43.93,186.56a3.44,3.44,0,0,1-.08-4.62,3.74,3.74,0,0,1,2.57-.75H49.3l.14,1.6h-3a1.72,1.72,0,0,0-1.17.35,1.34,1.34,0,0,0-.39,1.06,1.31,1.31,0,0,0,.51,1.14,2.72,2.72,0,0,0,1.56.37,4.54,4.54,0,0,0,1.7-.24.81.81,0,0,0,.56-.76l.21,1.43a2.31,2.31,0,0,1-.65.67,3.14,3.14,0,0,1-.89.4,4.41,4.41,0,0,1-1.14.13A4.25,4.25,0,0,1,43.93,186.56Zm5.28-5.79a2.17,2.17,0,0,0-.53-1.55,2,2,0,0,0-1.51-.55,3.75,3.75,0,0,0-1.19.19,3.69,3.69,0,0,0-1,.52l-1.46-1A3.82,3.82,0,0,1,45,177.3a5.44,5.44,0,0,1,2.09-.39,4.92,4.92,0,0,1,2.16.44,3.11,3.11,0,0,1,1.37,1.29,4.05,4.05,0,0,1,.47,2v6.51H49.21Z"/><path class="cls-3" d="M59.5,177.05h2v10.14h-2Zm6.15,4a2.31,2.31,0,0,0-.56-1.66,2.4,2.4,0,0,0-3.07-.07,1.93,1.93,0,0,0-.53,1.46l-.21-1.95a3.65,3.65,0,0,1,1.23-1.42,2.92,2.92,0,0,1,1.67-.5A3.13,3.13,0,0,1,66.73,178a4.64,4.64,0,0,1,.9,3v6.15h-2v-6.14Z"/><path class="cls-3" d="M72.42,186.81a3.56,3.56,0,0,1-1.52-1.55,5.34,5.34,0,0,1-.52-2.47v-1.14a6.07,6.07,0,0,1,.5-2.57,3.55,3.55,0,0,1,1.46-1.62,4.53,4.53,0,0,1,2.3-.56,3.68,3.68,0,0,1,2.17.63,3.9,3.9,0,0,1,1.37,1.84,8,8,0,0,1,.47,2.88v.67H71.83v-1.6h4.94a3.4,3.4,0,0,0-.64-1.93,1.8,1.8,0,0,0-1.48-.69,2.15,2.15,0,0,0-1.75.74,3.19,3.19,0,0,0-.62,2.1v1.29a2.64,2.64,0,0,0,.66,1.93,2.51,2.51,0,0,0,1.88.67,3.21,3.21,0,0,0,1.2-.24,3.38,3.38,0,0,0,1.06-.68l1.31,1.31a5.6,5.6,0,0,1-1.69,1.12,4.71,4.71,0,0,1-1.88.4A5.12,5.12,0,0,1,72.42,186.81Z"/><path class="cls-3" d="M80.52,177.05H82.6l1.8,7.24,2.53-7.24h1.39l2.53,7.24,1.8-7.24h2.08L91.6,187.19H90.1l-2.47-7-2.47,7h-1.5Z"/><path class="cls-3" d="M102.24,177.05h2v14.26h-2Zm2.89,9.83a2.7,2.7,0,0,1-1-1.28l.14-2.12a2.46,2.46,0,0,0,.23,1.11,1.59,1.59,0,0,0,.68.7,2.27,2.27,0,0,0,1.08.24,2,2,0,0,0,1.53-.6,2.43,2.43,0,0,0,.54-1.69V181a2.54,2.54,0,0,0-.54-1.73,1.93,1.93,0,0,0-1.53-.62,2.39,2.39,0,0,0-1.08.23,1.56,1.56,0,0,0-.68.69,2.31,2.31,0,0,0-.23,1.09l-.21-1.95a3.58,3.58,0,0,1,1.2-1.37,3,3,0,0,1,1.65-.48,3.38,3.38,0,0,1,1.84.48,3,3,0,0,1,1.17,1.41,5.57,5.57,0,0,1,.4,2.24v2.21a5.48,5.48,0,0,1-.41,2.21,3,3,0,0,1-1.2,1.4,3.59,3.59,0,0,1-1.89.48A2.84,2.84,0,0,1,105.13,186.88Z"/><path class="cls-3" d="M113.55,186.56a3.44,3.44,0,0,1-.08-4.62,3.74,3.74,0,0,1,2.57-.75h2.88l.14,1.6h-3a1.72,1.72,0,0,0-1.17.35,1.34,1.34,0,0,0-.39,1.06,1.31,1.31,0,0,0,.51,1.14,2.72,2.72,0,0,0,1.56.37,4.54,4.54,0,0,0,1.7-.24.79.79,0,0,0,.56-.76l.21,1.43a2.31,2.31,0,0,1-.65.67,2.78,2.78,0,0,1-.89.4,4.47,4.47,0,0,1-1.14.13A4.29,4.29,0,0,1,113.55,186.56Zm5.29-5.79a2.17,2.17,0,0,0-.53-1.55,2,2,0,0,0-1.51-.55,3.75,3.75,0,0,0-1.19.19,3.69,3.69,0,0,0-1,.52l-1.46-1a3.82,3.82,0,0,1,1.52-1.08,5.44,5.44,0,0,1,2.09-.39,4.92,4.92,0,0,1,2.16.44,3.17,3.17,0,0,1,1.37,1.29,4.05,4.05,0,0,1,.47,2v6.51h-1.89Z"/><path class="cls-3" d="M123,177.05h4.57v1.8H123Zm1.61,9.51a3.05,3.05,0,0,1-.57-2V174.1h2v10.47a.92.92,0,0,0,.15.57.51.51,0,0,0,.43.2h1v1.89H126.4A2.23,2.23,0,0,1,124.59,186.56Z"/><path class="cls-3" d="M130.28,173h2v2h-2Zm0,4.06h2v10.14h-2Z"/><path class="cls-3" d="M137.05,186.81a3.56,3.56,0,0,1-1.52-1.55,5.34,5.34,0,0,1-.52-2.47v-1.14a6.07,6.07,0,0,1,.5-2.57,3.6,3.6,0,0,1,1.46-1.62,4.53,4.53,0,0,1,2.3-.56,3.68,3.68,0,0,1,2.17.63,3.9,3.9,0,0,1,1.37,1.84,7.76,7.76,0,0,1,.47,2.88v.67h-6.84v-1.6h4.94a3.4,3.4,0,0,0-.64-1.93,1.8,1.8,0,0,0-1.48-.69,2.17,2.17,0,0,0-1.75.74,3.21,3.21,0,0,0-.62,2.1v1.29a2.64,2.64,0,0,0,.66,1.93,2.51,2.51,0,0,0,1.88.67,3.21,3.21,0,0,0,1.2-.24,3.38,3.38,0,0,0,1.06-.68l1.31,1.31a5.6,5.6,0,0,1-1.69,1.12,4.72,4.72,0,0,1-1.89.4A5.05,5.05,0,0,1,137.05,186.81Z"/><path class="cls-3" d="M146,177.05h2v10.14h-2Zm6.15,4a2.31,2.31,0,0,0-.56-1.66,2.4,2.4,0,0,0-3.07-.07,1.93,1.93,0,0,0-.53,1.46l-.21-1.95a3.65,3.65,0,0,1,1.23-1.42,2.92,2.92,0,0,1,1.67-.5,3.13,3.13,0,0,1,2.55,1.08,4.64,4.64,0,0,1,.9,3v6.15h-2v-6.14Z"/><path class="cls-3" d="M156.42,177.05H161v1.8h-4.57Zm1.61,9.51a3.05,3.05,0,0,1-.57-2V174.1h2v10.47a.92.92,0,0,0,.15.57.51.51,0,0,0,.43.2h1v1.89h-1.15A2.2,2.2,0,0,1,158,186.56Z"/><path class="cls-4" d="M117,162H47A45,45,0,0,1,2,117V47A45,45,0,0,1,47,2h70a45,45,0,0,1,45,45v70A45,45,0,0,1,117,162Z"/><path class="cls-5" d="M44.22,123.4c0-23.47,19.49-42.49,43.52-42.48s43.49,19,43.48,42.52"/><line class="cls-6" x1="11.23" y1="118.42" x2="36.23" y2="118.42"/><line class="cls-6" x1="23.73" y1="106.92" x2="23.73" y2="130.92"/></g></g></svg>