<svg xmlns="http://www.w3.org/2000/svg" viewBox="0 0 9.53 14.65"><defs><style>.cls-1{fill:#fff;stroke:#fff;stroke-miterlimit:10;stroke-width:0.7px;}</style></defs><title>location_black</title><g id="Layer_2" data-name="Layer 2"><g id="Layer_1-2" data-name="Layer 1"><g id="Group_4" data-name="Group 4"><path id="Path_21" data-name="Path 21" d="M4.82,14.31a.58.58,0,0,1-.53-.3C1.79,9.65.36,6.35.36,5A4.52,4.52,0,0,1,4.76.34,4.52,4.52,0,0,1,9.17,5c0,1.39-1.39,4.69-3.82,9A.6.6,0,0,1,4.82,14.31Z"/><path id="Path_22" data-name="Path 22" d="M4.76.68A4.18,4.18,0,0,1,8.81,5C8.81,6.28,7.4,9.6,5,13.85a.25.25,0,0,1-.33.09.28.28,0,0,1-.1-.09C2.17,9.6.72,6.28.72,5a4.17,4.17,0,0,1,4-4.28m0-.68A4.86,4.86,0,0,0,0,5c0,2,2.58,6.78,4,9.21a1,1,0,0,0,1.31.37.9.9,0,0,0,.39-.38C7,11.73,9.53,7,9.53,5A4.86,4.86,0,0,0,4.76,0Z"/></g><g id="Group_5" data-name="Group 5"><ellipse id="Ellipse_2" data-name="Ellipse 2" class="cls-1" cx="4.79" cy="4.71" rx="1.86" ry="1.81"/><path id="Path_23" data-name="Path 23" class="cls-1" d="M4.84,3.26A1.46,1.46,0,0,1,6.33,4.7,1.47,1.47,0,0,1,4.81,6.12,1.47,1.47,0,0,1,3.32,4.69,1.48,1.48,0,0,1,4.84,3.26m0-.68A2.17,2.17,0,0,0,2.63,4.71,2.17,2.17,0,0,0,4.87,6.8a2.16,2.16,0,0,0,2.2-2.11A2.17,2.17,0,0,0,4.84,2.58Z"/></g></g></g></svg>