<svg xmlns="http://www.w3.org/2000/svg" viewBox="0 0 13.67 13.06"><defs><style>.cls-1{fill:red;}</style></defs><title>Asset 7</title><g id="Layer_2" data-name="Layer 2"><g id="Layer_1-2" data-name="Layer 1"><polygon class="cls-1" points="4 8.16 1.08 5.4 5.05 4.76 6.77 1.13 8.61 4.71 12.6 5.22 9.76 8.08 10.5 12.03 6.91 10.21 3.38 12.14 4 8.16"/><path class="cls-1" d="M6.79,2.26,8,4.7l.24.47.52.07,2.73.35-1.94,2-.37.37.1.52.5,2.69L7.37,9.88,6.9,9.65l-.46.25L4,11.21,4.46,8.5,4.54,8l-.39-.36-2-1.89L4.87,5.3l.52-.09.22-.47L6.79,2.26M6.76,0l-2,4.31L0,5.07,3.47,8.35l-.74,4.71,4.19-2.28,4.26,2.15L10.3,8.24l3.37-3.38L8.93,4.25,6.76,0Z"/></g></g></svg>