<?xml version="1.0" encoding="utf-8"?>
<!-- Generator: Adobe Illustrator 24.0.2, SVG Export Plug-In . SVG Version: 6.00 Build 0)  -->
<svg version="1.1" id="Layer_1" xmlns="http://www.w3.org/2000/svg" xmlns:xlink="http://www.w3.org/1999/xlink" x="0px" y="0px"
	 viewBox="0 0 250 250" style="enable-background:new 0 0 250 250;" xml:space="preserve">
<style type="text/css">
	.st0{fill:#FFFFFF;}
	.st1{fill:#0071BC;}
	.st2{stroke:#000000;stroke-width:0.75;stroke-miterlimit:10;}
	.st3{fill:none;stroke:#0071BC;stroke-width:4;stroke-miterlimit:10;}
</style>
<g>
	<path class="st0" d="M127.1,162.3c-1.6,0-2.9-0.8-3.7-2.2c-17.3-32-27.2-56.3-27.2-66.5c0-18.8,13.7-34,30.5-34s30.5,15.3,30.5,34
		c0,10.2-9.6,34.4-26.4,66.5C130.1,161.4,128.7,162.3,127.1,162.3z"/>
	<path class="st1" d="M126.8,62.1c15.4,0,28,14.1,28,31.5c0,9.7-9.8,34.1-26.1,65.3c-0.4,0.8-1.1,0.9-1.5,0.9s-1.1-0.1-1.5-0.9
		c-16.8-31.2-26.9-55.6-26.9-65.3C98.8,76.2,111.3,62.1,126.8,62.1 M126.8,57.1c-18.2,0-33,16.3-33,36.5c0,14.7,17.9,49.8,27.5,67.7
		c1.3,2.4,3.6,3.5,5.9,3.5c2.3,0,4.7-1.2,5.9-3.6c9.4-17.9,26.7-52.9,26.7-67.6C159.8,73.4,145,57.1,126.8,57.1L126.8,57.1z"/>
</g>
<g>
	<circle class="st0" cx="127.3" cy="91.6" r="13"/>
	<path class="st1" d="M127.3,81.1c5.8,0,10.5,4.7,10.5,10.5s-4.7,10.5-10.5,10.5s-10.5-4.7-10.5-10.5S121.5,81.1,127.3,81.1
		 M127.3,76.1c-8.6,0-15.5,6.9-15.5,15.5s6.9,15.5,15.5,15.5s15.5-6.9,15.5-15.5C142.8,83,135.8,76.1,127.3,76.1L127.3,76.1z"/>
</g>
<g>
	<g>
		<path class="st2" d="M58.1,197.6h2v14.2h-2V197.6z M59.1,204.4h4.5c0.4,0,0.8-0.1,1.1-0.3s0.6-0.5,0.8-0.9s0.3-0.8,0.3-1.3
			c0-0.5-0.1-0.9-0.3-1.3s-0.4-0.7-0.8-0.9s-0.7-0.3-1.1-0.3h-4.5v-1.9h4.5c0.9,0,1.6,0.2,2.2,0.5s1.1,0.9,1.5,1.5s0.5,1.4,0.5,2.3
			s-0.2,1.6-0.5,2.3s-0.8,1.2-1.5,1.5s-1.4,0.5-2.2,0.5h-4.5V204.4z"/>
		<path class="st2" d="M70.8,211.1c-0.6-0.5-0.9-1.3-0.9-2.4c0-1,0.3-1.8,0.8-2.3s1.4-0.8,2.6-0.8h2.9l0.1,1.6h-3
			c-0.5,0-0.9,0.1-1.2,0.4s-0.4,0.6-0.4,1.1c0,0.5,0.2,0.9,0.5,1.1s0.9,0.4,1.6,0.4c0.8,0,1.3-0.1,1.7-0.2s0.6-0.4,0.6-0.8l0.2,1.4
			c-0.2,0.3-0.4,0.5-0.7,0.7s-0.6,0.3-0.9,0.4s-0.7,0.1-1.1,0.1C72.3,211.9,71.4,211.7,70.8,211.1z M76.1,205.4
			c0-0.7-0.2-1.2-0.5-1.6s-0.9-0.6-1.5-0.6c-0.4,0-0.8,0.1-1.2,0.2s-0.7,0.3-1,0.5l-1.5-1c0.4-0.5,0.9-0.8,1.5-1.1s1.3-0.4,2.1-0.4
			c0.8,0,1.6,0.1,2.2,0.4s1.1,0.7,1.4,1.3s0.5,1.2,0.5,2v6.5h-1.9V205.4z"/>
		<path class="st2" d="M80.2,201.6h4.6v1.8h-4.6V201.6z M81.8,211.1c-0.4-0.4-0.6-1.1-0.6-2v-10.4h2v10.5c0,0.3,0.1,0.4,0.2,0.6
			s0.2,0.2,0.4,0.2h1v1.9h-1.2C82.8,211.8,82.2,211.6,81.8,211.1z"/>
		<path class="st2" d="M87.5,197.6h2v2h-2V197.6z M87.5,201.6h2v10.1h-2V201.6z"/>
		<path class="st2" d="M94.3,211.4c-0.7-0.4-1.2-0.9-1.5-1.6s-0.5-1.5-0.5-2.5v-1.1c0-1,0.2-1.9,0.5-2.6s0.8-1.3,1.5-1.6
			s1.4-0.6,2.3-0.6c0.8,0,1.6,0.2,2.2,0.6s1.1,1,1.4,1.8s0.5,1.8,0.5,2.9v0.7h-6.8v-1.6h4.9c-0.1-0.8-0.3-1.5-0.6-1.9
			s-0.9-0.7-1.5-0.7c-0.8,0-1.3,0.3-1.8,0.7s-0.6,1.2-0.6,2.1v1.3c0,0.8,0.2,1.5,0.7,1.9s1.1,0.7,1.9,0.7c0.4,0,0.8-0.1,1.2-0.2
			s0.8-0.4,1.1-0.7l1.3,1.3c-0.5,0.5-1.1,0.9-1.7,1.1s-1.3,0.4-1.9,0.4C95.7,211.9,94.9,211.7,94.3,211.4z"/>
		<path class="st2" d="M103.2,201.6h2v10.1h-2V201.6z M109.4,205.6c0-0.7-0.2-1.3-0.6-1.7s-0.9-0.6-1.6-0.6c-0.7,0-1.2,0.2-1.5,0.5
			s-0.5,0.8-0.5,1.5l-0.2-1.9c0.3-0.6,0.7-1.1,1.2-1.4s1.1-0.5,1.7-0.5c1.1,0,1.9,0.4,2.6,1.1s0.9,1.7,0.9,3.1v6.1h-2L109.4,205.6
			L109.4,205.6z"/>
		<path class="st2" d="M113.6,201.6h4.6v1.8h-4.6V201.6z M115.2,211.1c-0.4-0.4-0.6-1.1-0.6-2v-10.4h2v10.5c0,0.3,0.1,0.4,0.2,0.6
			s0.2,0.2,0.4,0.2h1v1.9H117C116.2,211.8,115.6,211.6,115.2,211.1z"/>
		<path class="st2" d="M126.5,197.6h2v14.2h-2C126.5,211.8,126.5,197.6,126.5,197.6z M127.5,209.9h8.1v1.9h-8.1V209.9z"/>
		<path class="st2" d="M139.4,211.4c-0.6-0.3-1.1-0.9-1.4-1.5s-0.5-1.5-0.5-2.4v-1.6c0-0.9,0.2-1.7,0.5-2.4s0.8-1.1,1.4-1.5
			s1.4-0.5,2.3-0.5s1.6,0.2,2.3,0.5s1.1,0.8,1.4,1.5s0.5,1.4,0.5,2.4v1.7c0,0.9-0.2,1.7-0.5,2.4s-0.8,1.1-1.4,1.5s-1.4,0.5-2.3,0.5
			S140,211.8,139.4,211.4z M143.3,209.4c0.4-0.4,0.6-1.1,0.6-1.8v-1.7c0-0.8-0.2-1.4-0.6-1.8s-0.9-0.6-1.6-0.6s-1.2,0.2-1.6,0.6
			s-0.6,1-0.6,1.8v1.7c0,0.8,0.2,1.4,0.6,1.8s0.9,0.6,1.6,0.6S142.9,209.8,143.3,209.4z"/>
		<path class="st2" d="M150.4,211.4c-0.6-0.3-1.1-0.9-1.5-1.5s-0.5-1.4-0.5-2.4v-1.7c0-0.9,0.2-1.7,0.5-2.4s0.8-1.1,1.5-1.5
			s1.4-0.5,2.4-0.5c0.5,0,1,0.1,1.5,0.2s0.9,0.3,1.3,0.6s0.7,0.5,0.9,0.9l-1.4,1.3c-0.3-0.3-0.6-0.6-1-0.8s-0.8-0.3-1.2-0.3
			c-0.8,0-1.4,0.2-1.8,0.6s-0.6,1-0.6,1.8v1.7c0,0.8,0.2,1.4,0.6,1.9s1,0.6,1.8,0.6c0.4,0,0.8-0.1,1.2-0.3s0.7-0.5,1-0.8l1.4,1.4
			c-0.3,0.3-0.6,0.6-0.9,0.9s-0.8,0.4-1.3,0.5s-1,0.2-1.5,0.2C151.8,211.9,151,211.8,150.4,211.4z"/>
		<path class="st2" d="M159.1,211.1c-0.6-0.5-0.9-1.3-0.9-2.4c0-1,0.3-1.8,0.9-2.3s1.4-0.8,2.6-0.8h2.9l0.1,1.6h-3
			c-0.5,0-0.9,0.1-1.2,0.4c-0.3,0.2-0.4,0.6-0.4,1.1c0,0.5,0.2,0.9,0.5,1.1s0.9,0.4,1.6,0.4c0.8,0,1.3-0.1,1.7-0.2s0.6-0.4,0.6-0.8
			l0.2,1.4c-0.2,0.3-0.4,0.5-0.6,0.7c-0.3,0.2-0.6,0.3-0.9,0.4c-0.3,0.1-0.7,0.1-1.1,0.1C160.6,211.9,159.7,211.7,159.1,211.1z
			 M164.4,205.4c0-0.7-0.2-1.2-0.5-1.6c-0.4-0.4-0.9-0.6-1.5-0.6c-0.4,0-0.8,0.1-1.2,0.2c-0.4,0.1-0.7,0.3-1,0.5l-1.5-1
			c0.4-0.5,0.9-0.8,1.5-1.1s1.3-0.4,2.1-0.4c0.8,0,1.6,0.1,2.2,0.4c0.6,0.3,1.1,0.7,1.4,1.3s0.5,1.2,0.5,2v6.5h-1.9V205.4z"/>
		<path class="st2" d="M168.5,201.6h4.6v1.8h-4.6V201.6z M170.1,211.1c-0.4-0.4-0.6-1.1-0.6-2v-10.4h2v10.5c0,0.3,0.1,0.4,0.1,0.6
			s0.2,0.2,0.4,0.2h1v1.9h-1.1C171.1,211.8,170.5,211.6,170.1,211.1z"/>
		<path class="st2" d="M175.8,197.6h2v2h-2V197.6z M175.8,201.6h2v10.1h-2V201.6z"/>
		<path class="st2" d="M182.4,211.4c-0.6-0.3-1.1-0.9-1.4-1.5c-0.3-0.7-0.5-1.5-0.5-2.4v-1.6c0-0.9,0.2-1.7,0.5-2.4
			c0.3-0.6,0.8-1.1,1.4-1.5s1.4-0.5,2.3-0.5s1.6,0.2,2.3,0.5s1.1,0.8,1.4,1.5c0.3,0.6,0.5,1.4,0.5,2.4v1.7c0,0.9-0.2,1.7-0.5,2.4
			c-0.3,0.6-0.8,1.1-1.4,1.5s-1.4,0.5-2.3,0.5S183.1,211.8,182.4,211.4z M186.3,209.4c0.4-0.4,0.6-1.1,0.6-1.8v-1.7
			c0-0.8-0.2-1.4-0.6-1.8s-0.9-0.6-1.6-0.6s-1.2,0.2-1.6,0.6s-0.6,1-0.6,1.8v1.7c0,0.8,0.2,1.4,0.6,1.8s0.9,0.6,1.6,0.6
			C185.4,210,185.9,209.8,186.3,209.4z"/>
		<path class="st2" d="M191.7,201.6h2v10.1h-2V201.6z M197.9,205.6c0-0.7-0.2-1.3-0.6-1.7s-0.9-0.6-1.6-0.6c-0.6,0-1.1,0.2-1.5,0.5
			c-0.4,0.3-0.5,0.8-0.5,1.5l-0.2-1.9c0.3-0.6,0.7-1.1,1.2-1.4c0.5-0.3,1.1-0.5,1.7-0.5c1.1,0,1.9,0.4,2.6,1.1s0.9,1.7,0.9,3.1v6.1
			h-2L197.9,205.6L197.9,205.6z"/>
	</g>
</g>
<path class="st3" d="M160.3,189.6h-70c-24.8,0-45-20.1-45-45v-70c0-24.8,20.2-45,45-45h70c24.9,0,45,20.2,45,45v70
	C205.3,169.4,185.1,189.6,160.3,189.6z"/>
</svg>
