<?xml version="1.0" encoding="utf-8"?>
<!-- Generator: Adobe Illustrator 24.0.2, SVG Export Plug-In . SVG Version: 6.00 Build 0)  -->
<svg version="1.1" id="Layer_1" xmlns="http://www.w3.org/2000/svg" xmlns:xlink="http://www.w3.org/1999/xlink" x="0px" y="0px"
	 viewBox="0 0 250 250" style="enable-background:new 0 0 250 250;" xml:space="preserve">
<style type="text/css">
	.st0{fill:#FFFFFF;}
	.st1{fill:#0071BC;}
	.st2{stroke:#000000;stroke-width:0.75;stroke-miterlimit:10;}
	.st3{fill:none;stroke:#0071BC;stroke-width:4;stroke-miterlimit:10;}
</style>
<g>
	<circle class="st0" cx="113" cy="105" r="26.5"/>
	<path class="st1" d="M113,81c13.2,0,24,10.8,24,24s-10.8,24-24,24s-24-10.8-24-24S99.8,81,113,81 M113,76c-16,0-29,13-29,29
		s13,29,29,29s29-13,29-29S129,76,113,76L113,76z"/>
</g>
<g>
	<path class="st0" d="M157.5,148.8c-0.1,0-0.2,0-0.3-0.1l-23.5-23.5c-0.1-0.1-0.1-0.2-0.1-0.3s0-0.2,0.1-0.3
		c0.1-0.1,0.2-0.1,0.3-0.1c0.1,0,0.2,0,0.3,0.1l23.5,23.5c0.2,0.2,0.2,0.4,0,0.6C157.7,148.8,157.6,148.8,157.5,148.8z"/>
	<path class="st1" d="M134,122c-0.8,0-1.5,0.3-2.1,0.8l0,0c-1.1,1.1-1.1,3,0,4.1l23.5,23.5c0.6,0.6,1.3,0.9,2.1,0.9s1.5-0.3,2.1-0.9
		c1.1-1.1,1.1-3,0-4.1l-23.5-23.5C135.5,122.3,134.8,122,134,122L134,122z"/>
</g>
<g>
	<g>
		<path class="st2" d="M74,199.1h2v14.2h-2V199.1z M75,205.9h4.5c0.4,0,0.8-0.1,1.1-0.3s0.6-0.5,0.8-0.9s0.3-0.8,0.3-1.3
			c0-0.5-0.1-0.9-0.3-1.3s-0.4-0.7-0.8-0.9S80,201,79.6,201H75v-1.9h4.5c0.8,0,1.6,0.2,2.2,0.5s1.1,0.9,1.5,1.5s0.5,1.4,0.5,2.3
			s-0.2,1.6-0.5,2.3s-0.8,1.2-1.5,1.5s-1.4,0.5-2.2,0.5H75V205.9z"/>
		<path class="st2" d="M86.7,212.6c-0.6-0.5-0.9-1.3-0.9-2.4c0-1,0.3-1.8,0.8-2.3s1.4-0.8,2.6-0.8h2.9l0.1,1.6h-3
			c-0.5,0-0.9,0.1-1.2,0.4s-0.4,0.6-0.4,1.1c0,0.5,0.2,0.9,0.5,1.1s0.9,0.4,1.6,0.4c0.8,0,1.3-0.1,1.7-0.2s0.6-0.4,0.6-0.8l0.2,1.4
			c-0.2,0.3-0.4,0.5-0.7,0.7s-0.6,0.3-0.9,0.4s-0.7,0.1-1.1,0.1C88.3,213.4,87.3,213.2,86.7,212.6z M92,206.9c0-0.7-0.2-1.2-0.5-1.6
			s-0.9-0.6-1.5-0.6c-0.4,0-0.8,0.1-1.2,0.2s-0.7,0.3-1,0.5l-1.5-1c0.4-0.5,0.9-0.8,1.5-1.1s1.3-0.4,2.1-0.4c0.8,0,1.6,0.1,2.2,0.4
			s1.1,0.7,1.4,1.3s0.5,1.2,0.5,2v6.5H92V206.9z"/>
		<path class="st2" d="M96.1,203.1h4.6v1.8h-4.6V203.1z M97.7,212.6c-0.4-0.4-0.6-1.1-0.6-2v-10.4h2v10.5c0,0.3,0.1,0.4,0.2,0.6
			s0.2,0.2,0.4,0.2h1v1.9h-1.2C98.7,213.3,98.1,213.1,97.7,212.6z"/>
		<path class="st2" d="M103.4,199.1h2v2h-2V199.1z M103.4,203.1h2v10.1h-2V203.1z"/>
		<path class="st2" d="M110.2,212.9c-0.7-0.4-1.2-0.9-1.5-1.6s-0.5-1.5-0.5-2.5v-1.1c0-1,0.2-1.9,0.5-2.6s0.8-1.3,1.5-1.6
			s1.4-0.6,2.3-0.6c0.8,0,1.6,0.2,2.2,0.6s1.1,1,1.4,1.8s0.5,1.8,0.5,2.9v0.7h-6.8v-1.6h4.9c-0.1-0.8-0.3-1.5-0.6-1.9
			s-0.9-0.7-1.5-0.7c-0.8,0-1.3,0.3-1.8,0.7s-0.6,1.2-0.6,2.1v1.3c0,0.8,0.2,1.5,0.7,1.9s1.1,0.7,1.9,0.7c0.4,0,0.8-0.1,1.2-0.2
			s0.8-0.4,1.1-0.7l1.3,1.3c-0.5,0.5-1.1,0.9-1.7,1.1s-1.3,0.4-1.9,0.4C111.7,213.4,110.9,213.2,110.2,212.9z"/>
		<path class="st2" d="M119.2,203.1h2v10.1h-2V203.1z M125.3,207.1c0-0.7-0.2-1.3-0.6-1.7s-0.9-0.6-1.6-0.6c-0.7,0-1.2,0.2-1.5,0.5
			s-0.5,0.8-0.5,1.5l-0.2-1.9c0.3-0.6,0.7-1.1,1.2-1.4s1.1-0.5,1.7-0.5c1.1,0,1.9,0.4,2.6,1.1s0.9,1.7,0.9,3.1v6.1h-2L125.3,207.1
			L125.3,207.1z"/>
		<path class="st2" d="M129.6,203.1h4.6v1.8h-4.6V203.1z M131.2,212.6c-0.4-0.4-0.6-1.1-0.6-2v-10.4h2v10.5c0,0.3,0.1,0.4,0.1,0.6
			s0.2,0.2,0.4,0.2h1v1.9H133C132.2,213.3,131.6,213.1,131.2,212.6z"/>
		<path class="st2" d="M144.4,213.3h-2v-14.2h2V213.3z"/>
		<path class="st2" d="M147.7,203.1h2v10.1h-2V203.1z M153.9,207.1c0-0.7-0.2-1.3-0.6-1.7s-0.9-0.6-1.6-0.6c-0.6,0-1.1,0.2-1.5,0.5
			s-0.5,0.8-0.5,1.5l-0.2-1.9c0.3-0.6,0.7-1.1,1.2-1.4s1.1-0.5,1.7-0.5c1.1,0,1.9,0.4,2.6,1.1s0.9,1.7,0.9,3.1v6.1h-2L153.9,207.1
			L153.9,207.1z"/>
		<path class="st2" d="M158.1,203.1h5.1v1.7h-5.1V203.1z M159.2,201.8c0-0.9,0.2-1.6,0.6-2c0.4-0.4,1.1-0.7,1.9-0.7h1.5v1.9h-1.4
			c-0.2,0-0.3,0.1-0.4,0.2s-0.1,0.3-0.1,0.6v11.5h-2L159.2,201.8L159.2,201.8z"/>
		<path class="st2" d="M166.9,212.9c-0.6-0.3-1.1-0.9-1.4-1.5c-0.3-0.7-0.5-1.5-0.5-2.4v-1.6c0-0.9,0.2-1.7,0.5-2.4
			c0.3-0.6,0.8-1.1,1.4-1.5s1.4-0.5,2.3-0.5s1.6,0.2,2.3,0.5s1.1,0.8,1.4,1.5c0.3,0.6,0.5,1.4,0.5,2.4v1.7c0,0.9-0.2,1.7-0.5,2.4
			c-0.3,0.6-0.8,1.1-1.4,1.5s-1.4,0.5-2.3,0.5S167.5,213.3,166.9,212.9z M170.8,210.9c0.4-0.4,0.6-1.1,0.6-1.8v-1.7
			c0-0.8-0.2-1.4-0.6-1.8s-0.9-0.6-1.6-0.6s-1.2,0.2-1.6,0.6s-0.6,1-0.6,1.8v1.7c0,0.8,0.2,1.4,0.6,1.8s0.9,0.6,1.6,0.6
			C169.8,211.5,170.4,211.3,170.8,210.9z"/>
	</g>
</g>
<path class="st3" d="M157.2,188.1h-70c-24.8,0-45-20.1-45-45v-70c0-24.8,20.2-45,45-45h70c24.9,0,45,20.2,45,45v70
	C202.2,167.9,182.1,188.1,157.2,188.1z"/>
</svg>
