<svg xmlns="http://www.w3.org/2000/svg" viewBox="0 0 164 184.77"><defs><style>.cls-1{fill:#fff;}.cls-2{fill:#0071bc;}.cls-3{stroke:#000;stroke-width:0.75px;}.cls-3,.cls-4{stroke-miterlimit:10;}.cls-4{fill:none;stroke:#0071bc;stroke-width:4px;}</style></defs><title>Asset 1</title><g id="Layer_2" data-name="Layer 2"><g id="Layer_1-2" data-name="Layer 1"><path class="cls-1" d="M83.8,134.7a4.13,4.13,0,0,1-3.7-2.2C62.8,100.5,52.9,76.2,52.9,66c0-18.8,13.7-34,30.5-34s30.5,15.3,30.5,34c0,10.2-9.6,34.4-26.4,66.5A4.21,4.21,0,0,1,83.8,134.7Z"/><path class="cls-2" d="M83.5,34.5c15.4,0,28,14.1,28,31.5,0,9.7-9.8,34.1-26.1,65.3a1.7,1.7,0,0,1-3,0C65.6,100.1,55.5,75.7,55.5,66c0-17.4,12.5-31.5,28-31.5m0-5c-18.2,0-33,16.3-33,36.5,0,14.7,17.9,49.8,27.5,67.7a6.68,6.68,0,0,0,11.8-.1c9.4-17.9,26.7-52.9,26.7-67.6,0-20.2-14.8-36.5-33-36.5Z"/><circle class="cls-1" cx="84" cy="64" r="13"/><path class="cls-2" d="M84,53.5A10.5,10.5,0,1,1,73.5,64,10.5,10.5,0,0,1,84,53.5m0-5A15.5,15.5,0,1,0,99.5,64,15.45,15.45,0,0,0,84,48.5Z"/><path class="cls-3" d="M14.8,170h2v14.2h-2Zm1,6.8h4.5a2,2,0,0,0,1.1-.3,2.36,2.36,0,0,0,.8-.9,3,3,0,0,0,0-2.6,1.76,1.76,0,0,0-.8-.9,2.28,2.28,0,0,0-1.1-.3H15.8v-1.9h4.5a4.77,4.77,0,0,1,2.2.5,4.31,4.31,0,0,1,1.5,1.5,4.13,4.13,0,0,1,.5,2.3,5.56,5.56,0,0,1-.5,2.3,2.76,2.76,0,0,1-1.5,1.5,5.45,5.45,0,0,1-2.2.5H15.8Z"/><path class="cls-3" d="M27.5,183.5a3,3,0,0,1-.9-2.4,3.2,3.2,0,0,1,.8-2.3A3.67,3.67,0,0,1,30,178h2.9l.1,1.6H30a1.59,1.59,0,0,0-1.2.4,1.37,1.37,0,0,0-.4,1.1,1.29,1.29,0,0,0,.5,1.1,3.1,3.1,0,0,0,1.6.4,6.53,6.53,0,0,0,1.7-.2.76.76,0,0,0,.6-.8L33,183a2.34,2.34,0,0,1-.7.7,3.55,3.55,0,0,1-.9.4,3.75,3.75,0,0,1-1.1.1A3.38,3.38,0,0,1,27.5,183.5Zm5.3-5.7a2.54,2.54,0,0,0-.5-1.6,1.89,1.89,0,0,0-1.5-.6,5,5,0,0,0-1.2.2,3.13,3.13,0,0,0-1,.5l-1.5-1a4.18,4.18,0,0,1,1.5-1.1,4.64,4.64,0,0,1,2.1-.4,5.09,5.09,0,0,1,2.2.4,3,3,0,0,1,1.4,1.3,4.23,4.23,0,0,1,.5,2V184H32.9v-6.2Z"/><path class="cls-3" d="M36.9,174h4.6v1.8H36.9Zm1.6,9.5a2.81,2.81,0,0,1-.6-2V171.1h2v10.5a1.07,1.07,0,0,0,.2.6c.1.2.2.2.4.2h1v1.9H40.3A2.54,2.54,0,0,1,38.5,183.5Z"/><path class="cls-3" d="M44.2,170h2v2h-2Zm0,4h2v10.1h-2Z"/><path class="cls-3" d="M51,183.8a3.32,3.32,0,0,1-1.5-1.6,6.18,6.18,0,0,1-.5-2.5v-1.1a6.69,6.69,0,0,1,.5-2.6,2.94,2.94,0,0,1,1.5-1.6,5.58,5.58,0,0,1,2.3-.6,4,4,0,0,1,2.2.6,3.68,3.68,0,0,1,1.4,1.8,8.36,8.36,0,0,1,.5,2.9v.7H50.6v-1.6h4.9a4.25,4.25,0,0,0-.6-1.9,2,2,0,0,0-1.5-.7,2.31,2.31,0,0,0-2.4,2.8v1.3a2.35,2.35,0,0,0,.7,1.9,2.94,2.94,0,0,0,1.9.7,5,5,0,0,0,1.2-.2,2.59,2.59,0,0,0,1.1-.7l1.3,1.3a4.52,4.52,0,0,1-1.7,1.1,6.46,6.46,0,0,1-1.9.4A4.73,4.73,0,0,1,51,183.8Z"/><path class="cls-3" d="M59.9,174h2v10.1h-2Zm6.2,4a2.35,2.35,0,0,0-.6-1.7,2.11,2.11,0,0,0-1.6-.6,1.77,1.77,0,0,0-2,2l-.2-1.9a3.33,3.33,0,0,1,1.2-1.4,3.37,3.37,0,0,1,1.7-.5,3.47,3.47,0,0,1,2.6,1.1,4.12,4.12,0,0,1,.9,3.1v6.1h-2V178Z"/><path class="cls-3" d="M70.3,174h4.6v1.8H70.3Zm1.6,9.5a2.81,2.81,0,0,1-.6-2V171.1h2v10.5a1.07,1.07,0,0,0,.2.6c.1.2.2.2.4.2h1v1.9H73.7A2.54,2.54,0,0,1,71.9,183.5Z"/><path class="cls-3" d="M83.2,170h2v14.2h-2Zm1,12.3h8.1v1.9H84.2Z"/><path class="cls-3" d="M96.1,183.8a3.39,3.39,0,0,1-1.4-1.5,5.68,5.68,0,0,1-.5-2.4v-1.6a6,6,0,0,1,.5-2.4,3.39,3.39,0,0,1,1.4-1.5,4.13,4.13,0,0,1,2.3-.5,5.56,5.56,0,0,1,2.3.5,2.59,2.59,0,0,1,1.4,1.5,5.68,5.68,0,0,1,.5,2.4V180a6,6,0,0,1-.5,2.4,3.39,3.39,0,0,1-1.4,1.5,5.09,5.09,0,0,1-4.6-.1Zm3.9-2a2.61,2.61,0,0,0,.6-1.8v-1.7a2.44,2.44,0,0,0-.6-1.8,2.43,2.43,0,0,0-3.2,0,2.44,2.44,0,0,0-.6,1.8V180a2.44,2.44,0,0,0,.6,1.8,2.43,2.43,0,0,0,3.2,0Z"/><path class="cls-3" d="M107.1,183.8a4,4,0,0,1-2-3.9v-1.7a6,6,0,0,1,.5-2.4,3.12,3.12,0,0,1,1.5-1.5,4.49,4.49,0,0,1,2.4-.5,7.72,7.72,0,0,1,1.5.2,3.1,3.1,0,0,1,1.3.6,2.58,2.58,0,0,1,.9.9l-1.4,1.3a3.92,3.92,0,0,0-1-.8,2.66,2.66,0,0,0-1.2-.3,2.12,2.12,0,0,0-2.4,2.4v1.7a2.88,2.88,0,0,0,.6,1.9,2.1,2.1,0,0,0,1.8.6,2.66,2.66,0,0,0,1.2-.3,3.92,3.92,0,0,0,1-.8l1.4,1.4-.9.9a2.54,2.54,0,0,1-1.3.5,7.72,7.72,0,0,1-1.5.2A3.6,3.6,0,0,1,107.1,183.8Z"/><path class="cls-3" d="M115.8,183.5a3,3,0,0,1-.9-2.4,2.87,2.87,0,0,1,.9-2.3,3.84,3.84,0,0,1,2.6-.8h2.9l.1,1.6h-3a1.59,1.59,0,0,0-1.2.4,1.25,1.25,0,0,0-.4,1.1,1.29,1.29,0,0,0,.5,1.1,3.1,3.1,0,0,0,1.6.4,6.53,6.53,0,0,0,1.7-.2.76.76,0,0,0,.6-.8l.2,1.4a4.35,4.35,0,0,1-.6.7,3.55,3.55,0,0,1-.9.4,3.75,3.75,0,0,1-1.1.1C117.3,184.3,116.4,184.1,115.8,183.5Zm5.3-5.7a2.54,2.54,0,0,0-.5-1.6,2,2,0,0,0-1.5-.6,5,5,0,0,0-1.2.2,3.13,3.13,0,0,0-1,.5l-1.5-1a4.18,4.18,0,0,1,1.5-1.1,4.64,4.64,0,0,1,2.1-.4,5.09,5.09,0,0,1,2.2.4,3,3,0,0,1,1.4,1.3,4.23,4.23,0,0,1,.5,2V184h-1.9v-6.2Z"/><path class="cls-3" d="M125.2,174h4.6v1.8h-4.6Zm1.6,9.5a2.81,2.81,0,0,1-.6-2V171.1h2v10.5c0,.3.1.4.1.6s.2.2.4.2h1v1.9h-1.1A2.54,2.54,0,0,1,126.8,183.5Z"/><path class="cls-3" d="M132.5,170h2v2h-2Zm0,4h2v10.1h-2Z"/><path class="cls-3" d="M139.1,183.8a3.39,3.39,0,0,1-1.4-1.5,6,6,0,0,1-.5-2.4v-1.6a6,6,0,0,1,.5-2.4,4,4,0,0,1,1.4-1.5,4.13,4.13,0,0,1,2.3-.5,5.56,5.56,0,0,1,2.3.5,2.59,2.59,0,0,1,1.4,1.5,5.36,5.36,0,0,1,.5,2.4V180a6,6,0,0,1-.5,2.4,4,4,0,0,1-1.4,1.5,4.13,4.13,0,0,1-2.3.5A4.38,4.38,0,0,1,139.1,183.8Zm3.9-2a2.61,2.61,0,0,0,.6-1.8v-1.7a2.44,2.44,0,0,0-.6-1.8,2.43,2.43,0,0,0-3.2,0,2.44,2.44,0,0,0-.6,1.8V180a2.44,2.44,0,0,0,.6,1.8,2.43,2.43,0,0,0,3.2,0Z"/><path class="cls-3" d="M148.4,174h2v10.1h-2Zm6.2,4a2.35,2.35,0,0,0-.6-1.7,2.11,2.11,0,0,0-1.6-.6,2.46,2.46,0,0,0-1.5.5,1.72,1.72,0,0,0-.5,1.5l-.2-1.9a3.33,3.33,0,0,1,1.2-1.4,3.37,3.37,0,0,1,1.7-.5,3.47,3.47,0,0,1,2.6,1.1,4.12,4.12,0,0,1,.9,3.1v6.1h-2V178Z"/><path class="cls-4" d="M117,162H47A45,45,0,0,1,2,117V47A45.07,45.07,0,0,1,47,2h70a45,45,0,0,1,45,45v70A45.07,45.07,0,0,1,117,162Z"/></g></g></svg>