<svg xmlns="http://www.w3.org/2000/svg" viewBox="0 0 164 187.77"><defs><style>.cls-1{fill:#fff;}.cls-2{fill:#0071bc;}.cls-3{stroke:#000;stroke-width:0.75px;}.cls-3,.cls-4{stroke-miterlimit:10;}.cls-4{fill:none;stroke:#0071bc;stroke-width:4px;}</style></defs><title>Asset 1</title><g id="Layer_2" data-name="Layer 2"><g id="Layer_1-2" data-name="Layer 1"><circle class="cls-1" cx="72.8" cy="78.9" r="26.5"/><path class="cls-2" d="M72.8,54.9a24,24,0,1,1-24,24,24.07,24.07,0,0,1,24-24m0-5a29,29,0,1,0,29,29,29,29,0,0,0-29-29Z"/><path class="cls-1" d="M117.3,122.7a.37.37,0,0,1-.3-.1L93.5,99.1a.43.43,0,0,1,.6-.6L117.6,122a.37.37,0,0,1,0,.6A.37.37,0,0,1,117.3,122.7Z"/><path class="cls-2" d="M93.8,95.9a3.23,3.23,0,0,0-2.1.8h0a3,3,0,0,0,0,4.1l23.5,23.5a2.9,2.9,0,0,0,4.2,0,3,3,0,0,0,0-4.1L95.9,96.7a3.23,3.23,0,0,0-2.1-.8Z"/><path class="cls-3" d="M33.8,173h2v14.2h-2Zm1,6.8h4.5a2,2,0,0,0,1.1-.3,2.36,2.36,0,0,0,.8-.9,3,3,0,0,0,0-2.6,1.76,1.76,0,0,0-.8-.9,1.8,1.8,0,0,0-1-.2H34.8V173h4.5a5.09,5.09,0,0,1,2.2.5A4.31,4.31,0,0,1,43,175a4.13,4.13,0,0,1,.5,2.3,5.56,5.56,0,0,1-.5,2.3,2.76,2.76,0,0,1-1.5,1.5,5.45,5.45,0,0,1-2.2.5H34.8Z"/><path class="cls-3" d="M46.5,186.5a3,3,0,0,1-.9-2.4,3.2,3.2,0,0,1,.8-2.3A3.67,3.67,0,0,1,49,181h2.9l.1,1.6H49a1.59,1.59,0,0,0-1.2.4,1.37,1.37,0,0,0-.4,1.1,1.29,1.29,0,0,0,.5,1.1,3.1,3.1,0,0,0,1.6.4,6.53,6.53,0,0,0,1.7-.2.76.76,0,0,0,.6-.8L52,186a2.34,2.34,0,0,1-.7.7,3.55,3.55,0,0,1-.9.4,3.75,3.75,0,0,1-1.1.1A3.49,3.49,0,0,1,46.5,186.5Zm5.3-5.7a2.54,2.54,0,0,0-.5-1.6,1.89,1.89,0,0,0-1.5-.6,5,5,0,0,0-1.2.2,3.13,3.13,0,0,0-1,.5l-1.5-1a4.18,4.18,0,0,1,1.5-1.1,4.64,4.64,0,0,1,2.1-.4,5.09,5.09,0,0,1,2.2.4,3,3,0,0,1,1.4,1.3,4.23,4.23,0,0,1,.5,2V187h-2Z"/><path class="cls-3" d="M55.9,177h4.6v1.8H55.9Zm1.6,9.5a2.81,2.81,0,0,1-.6-2V174.1h2v10.5a1.07,1.07,0,0,0,.2.6c.1.2.2.2.4.2h1v1.9H59.3A2.54,2.54,0,0,1,57.5,186.5Z"/><path class="cls-3" d="M63.2,173h2v2h-2Zm0,4h2v10.1h-2Z"/><path class="cls-3" d="M70,186.8a3.32,3.32,0,0,1-1.5-1.6,6.18,6.18,0,0,1-.5-2.5v-1.1a6.69,6.69,0,0,1,.5-2.6,2.94,2.94,0,0,1,1.5-1.6,5.58,5.58,0,0,1,2.3-.6,4,4,0,0,1,2.2.6,3.68,3.68,0,0,1,1.4,1.8,8.36,8.36,0,0,1,.5,2.9v.7H69.6v-1.6h4.9a4.25,4.25,0,0,0-.6-1.9,2,2,0,0,0-1.5-.7,2.31,2.31,0,0,0-2.4,2.8v1.3a2.35,2.35,0,0,0,.7,1.9,2.94,2.94,0,0,0,1.9.7,5,5,0,0,0,1.2-.2,2.59,2.59,0,0,0,1.1-.7l1.3,1.3a4.52,4.52,0,0,1-1.7,1.1,6.46,6.46,0,0,1-1.9.4A5.1,5.1,0,0,1,70,186.8Z"/><path class="cls-3" d="M79,177h2v10.1H79Zm6.1,4a2.35,2.35,0,0,0-.6-1.7,2.11,2.11,0,0,0-1.6-.6,1.77,1.77,0,0,0-2,2l-.2-1.9a3.33,3.33,0,0,1,1.2-1.4,3.37,3.37,0,0,1,1.7-.5,3.47,3.47,0,0,1,2.6,1.1,4.12,4.12,0,0,1,.9,3.1v6.1h-2V181Z"/><path class="cls-3" d="M89.4,177H94v1.8H89.4Zm1.6,9.5a2.81,2.81,0,0,1-.6-2V174.1h2v10.5c0,.3.1.4.1.6s.2.2.4.2h1v1.9H92.8A2.54,2.54,0,0,1,91,186.5Z"/><path class="cls-3" d="M104.2,187.2h-2V173h2Z"/><path class="cls-3" d="M107.5,177h2v10.1h-2Zm6.2,4a2.35,2.35,0,0,0-.6-1.7,2.11,2.11,0,0,0-1.6-.6,2.46,2.46,0,0,0-1.5.5,1.72,1.72,0,0,0-.5,1.5l-.2-1.9a3.33,3.33,0,0,1,1.2-1.4,3.37,3.37,0,0,1,1.7-.5,3.47,3.47,0,0,1,2.6,1.1,4.12,4.12,0,0,1,.9,3.1v6.1h-2V181Z"/><path class="cls-3" d="M117.9,177H123v1.7h-5.1Zm1.1-1.3a2.81,2.81,0,0,1,.6-2,2.74,2.74,0,0,1,1.9-.7H123v1.9h-1.4a.52.52,0,0,0-.4.2c-.1.1-.1.3-.1.6v11.5h-2l-.1-11.5Z"/><path class="cls-3" d="M126.7,186.8a3.39,3.39,0,0,1-1.4-1.5,6,6,0,0,1-.5-2.4v-1.6a6,6,0,0,1,.5-2.4,4,4,0,0,1,1.4-1.5,4.13,4.13,0,0,1,2.3-.5,5.56,5.56,0,0,1,2.3.5,2.59,2.59,0,0,1,1.4,1.5,5.36,5.36,0,0,1,.5,2.4V183a6,6,0,0,1-.5,2.4,4,4,0,0,1-1.4,1.5,5.09,5.09,0,0,1-4.6-.1Zm3.9-2a2.61,2.61,0,0,0,.6-1.8v-1.7a2.44,2.44,0,0,0-.6-1.8,2.43,2.43,0,0,0-3.2,0,2.44,2.44,0,0,0-.6,1.8V183a2.44,2.44,0,0,0,.6,1.8,2.11,2.11,0,0,0,1.6.6A2.27,2.27,0,0,0,130.6,184.8Z"/><path class="cls-4" d="M117,162H47A45,45,0,0,1,2,117V47A45.07,45.07,0,0,1,47,2h70a45,45,0,0,1,45,45v70A45,45,0,0,1,117,162Z"/></g></g></svg>