<svg xmlns="http://www.w3.org/2000/svg" viewBox="0 0 164 187.74"><defs><style>.cls-1{stroke:#000;stroke-width:0.75px;}.cls-1,.cls-2,.cls-3{stroke-miterlimit:10;}.cls-2{fill:none;}.cls-2,.cls-3{stroke:#0071bc;stroke-width:4px;}.cls-3{fill:#fff;}</style></defs><title>Asset 1</title><g id="Layer_2" data-name="Layer 2"><g id="Layer_1-2" data-name="Layer 1"><path class="cls-1" d="M45.8,173h2v14.2h-2Zm1,0h8v1.9h-8Zm0,6.33h6.88v1.89H46.78Z"/><path class="cls-1" d="M58.53,186.81A3.48,3.48,0,0,1,57,185.26a5.32,5.32,0,0,1-.53-2.46v-1.15a5.87,5.87,0,0,1,.51-2.56,3.62,3.62,0,0,1,1.46-1.63,4.48,4.48,0,0,1,2.3-.55,3.68,3.68,0,0,1,2.17.63,4,4,0,0,1,1.37,1.84,7.76,7.76,0,0,1,.47,2.88v.66H57.94v-1.6h4.94a3.43,3.43,0,0,0-.64-1.93,1.8,1.8,0,0,0-1.48-.69,2.14,2.14,0,0,0-1.75.75,3.13,3.13,0,0,0-.62,2.1v1.29a2.64,2.64,0,0,0,.66,1.93,2.52,2.52,0,0,0,1.89.67,3.21,3.21,0,0,0,1.2-.24,3.49,3.49,0,0,0,1.06-.68l1.31,1.3a5.25,5.25,0,0,1-1.69,1.12,4.68,4.68,0,0,1-1.88.4A5.14,5.14,0,0,1,58.53,186.81Z"/><path class="cls-1" d="M69.26,186.81a3.5,3.5,0,0,1-1.52-1.55,5.32,5.32,0,0,1-.52-2.46v-1.15a5.88,5.88,0,0,1,.5-2.56,3.62,3.62,0,0,1,1.46-1.63,4.53,4.53,0,0,1,2.3-.55,3.68,3.68,0,0,1,2.17.63A4,4,0,0,1,75,179.38a7.75,7.75,0,0,1,.48,2.88v.66H68.66v-1.6H73.6a3.43,3.43,0,0,0-.64-1.93,1.79,1.79,0,0,0-1.48-.69,2.14,2.14,0,0,0-1.75.75,3.19,3.19,0,0,0-.62,2.1v1.29a2.64,2.64,0,0,0,.66,1.93,2.55,2.55,0,0,0,1.89.67,3.21,3.21,0,0,0,1.2-.24,3.54,3.54,0,0,0,1.07-.68l1.3,1.3a5.25,5.25,0,0,1-1.69,1.12,4.68,4.68,0,0,1-1.88.4A5.06,5.06,0,0,1,69.26,186.81Z"/><path class="cls-1" d="M79.55,186.88a3,3,0,0,1-1.2-1.41,5.53,5.53,0,0,1-.41-2.22V181a5.61,5.61,0,0,1,.4-2.24,3,3,0,0,1,1.17-1.41,3.38,3.38,0,0,1,1.84-.48,3,3,0,0,1,1.64.47,3.44,3.44,0,0,1,1.21,1.32L84,180.74a2.39,2.39,0,0,0-.23-1.11,1.64,1.64,0,0,0-.68-.7A2.39,2.39,0,0,0,82,178.7a1.92,1.92,0,0,0-1.53.61,2.54,2.54,0,0,0-.54,1.73v2.21a2.46,2.46,0,0,0,.54,1.7,2,2,0,0,0,1.53.6,2.16,2.16,0,0,0,1.08-.25,1.58,1.58,0,0,0,.68-.72,2.41,2.41,0,0,0,.23-1.12l.14,2.14a2.88,2.88,0,0,1-1,1.26,2.79,2.79,0,0,1-1.7.51A3.45,3.45,0,0,1,79.55,186.88ZM84,173h2v14.2H84Z"/><path class="cls-1" d="M89,173h2v14.2H89Zm2.89,13.89a2.68,2.68,0,0,1-1-1.28l.14-2.12a2.34,2.34,0,0,0,.23,1.11,1.66,1.66,0,0,0,.68.71,2.21,2.21,0,0,0,1.08.24,2,2,0,0,0,1.53-.6,2.43,2.43,0,0,0,.54-1.69v-2.2a2.54,2.54,0,0,0-.54-1.73A2,2,0,0,0,93,178.7a2.21,2.21,0,0,0-1.08.24,1.62,1.62,0,0,0-.68.69,2.28,2.28,0,0,0-.23,1.09l-.21-2a3.58,3.58,0,0,1,1.2-1.37,3,3,0,0,1,1.65-.48,3.38,3.38,0,0,1,1.84.48,3,3,0,0,1,1.17,1.41,5.61,5.61,0,0,1,.4,2.24v2.21a5.4,5.4,0,0,1-.41,2.2,3,3,0,0,1-1.2,1.4,3.51,3.51,0,0,1-1.9.49A2.92,2.92,0,0,1,91.9,186.88Z"/><path class="cls-1" d="M100.33,186.56a2.9,2.9,0,0,1-.93-2.36,2.87,2.87,0,0,1,.85-2.25,3.81,3.81,0,0,1,2.57-.75h2.88l.14,1.6h-3a1.72,1.72,0,0,0-1.17.34,1.38,1.38,0,0,0-.38,1.06,1.33,1.33,0,0,0,.51,1.15,2.72,2.72,0,0,0,1.56.37,4.31,4.31,0,0,0,1.7-.25.79.79,0,0,0,.56-.76l.21,1.43a2.44,2.44,0,0,1-.65.67,2.88,2.88,0,0,1-.89.4,5,5,0,0,1-1.15.13A4.27,4.27,0,0,1,100.33,186.56Zm5.28-5.79a2.11,2.11,0,0,0-.53-1.55,2,2,0,0,0-1.51-.55,3.93,3.93,0,0,0-1.18.18,3.69,3.69,0,0,0-1,.52l-1.46-1a3.89,3.89,0,0,1,1.52-1.08,5.65,5.65,0,0,1,2.1-.38,4.88,4.88,0,0,1,2.15.44,3.11,3.11,0,0,1,1.37,1.29,4.16,4.16,0,0,1,.47,2v6.51h-1.9Z"/><path class="cls-1" d="M112.26,186.82a3.56,3.56,0,0,1-1.5-1.5,5.17,5.17,0,0,1-.52-2.39v-1.67a5,5,0,0,1,.52-2.35,3.54,3.54,0,0,1,1.5-1.49,5.06,5.06,0,0,1,2.37-.51,5.53,5.53,0,0,1,1.49.19,4.56,4.56,0,0,1,1.25.55,3.4,3.4,0,0,1,.93.88l-1.44,1.29a2.81,2.81,0,0,0-1-.75,2.84,2.84,0,0,0-1.2-.27,2.4,2.4,0,0,0-1.79.65,2.48,2.48,0,0,0-.63,1.81v1.67a2.59,2.59,0,0,0,.63,1.86,2.34,2.34,0,0,0,1.79.65,2.72,2.72,0,0,0,1.21-.28,3,3,0,0,0,1-.8l1.44,1.39a3.7,3.7,0,0,1-.94.86,4.26,4.26,0,0,1-1.25.54,5.51,5.51,0,0,1-1.48.19A5.06,5.06,0,0,1,112.26,186.82Z"/><path class="cls-1" d="M120.5,173h2v14.2h-2Zm.86,10.35,5.21-6.29h2.35l-7.69,8.66Zm2.35-2L125,180l4.42,7.18h-2.16Z"/><rect class="cls-2" x="2" y="2" width="160" height="160" rx="45"/><path class="cls-2" d="M127,109H40.43c-21.35,21.44-23,12-10.2-12.23V57.65c0-6.75,4.57-12.23,10.2-12.23H127c5.63,0,10.2,5.48,10.2,12.23V96.73C137.23,103.48,132.66,109,127,109Z"/><line class="cls-2" x1="43.73" y1="60.92" x2="108.73" y2="60.92"/><line class="cls-2" x1="43.65" y1="80.41" x2="99.65" y2="80.41"/><line class="cls-2" x1="43.65" y1="70.41" x2="102.73" y2="69.92"/><path class="cls-3" d="M115.05,81.12l1.26-7.25a1.73,1.73,0,0,1,.58-1l29.13-24a1.67,1.67,0,0,1,2.29.16l3.59,3.89a1.69,1.69,0,0,1-.16,2.42l-28.83,24a1.62,1.62,0,0,1-.75.35Z"/><line class="cls-2" x1="142.93" y1="52.43" x2="148.53" y2="59.41"/></g></g></svg>